<?xml version="1.0" encoding="UTF-8" standalone="no"?>
<!-- Created with Inkscape (http://www.inkscape.org/) -->

<svg
   width="209.99997mm"
   height="210.00002mm"
   viewBox="0 0 209.99997 210.00002"
   version="1.1"
   id="svg1"
   xml:space="preserve"
   xmlns:xlink="http://www.w3.org/1999/xlink"
   xmlns="http://www.w3.org/2000/svg"
   xmlns:svg="http://www.w3.org/2000/svg"><defs
     id="defs1"><linearGradient
       id="linearGradient20"><stop
         style="stop-color:#6c6c6c;stop-opacity:1;"
         offset="0.04670653"
         id="stop24" /><stop
         style="stop-color:#2d2d2d;stop-opacity:1;"
         offset="0.24802057"
         id="stop20" /></linearGradient><linearGradient
       id="linearGradient50"><stop
         style="stop-color:#602b07;stop-opacity:1;"
         offset="0"
         id="stop50" /><stop
         style="stop-color:#f6681b;stop-opacity:1;"
         offset="0.5"
         id="stop52" /><stop
         style="stop-color:#562405;stop-opacity:1;"
         offset="1"
         id="stop51" /></linearGradient><linearGradient
       id="linearGradient42"><stop
         style="stop-color:#e1e1e1;stop-opacity:1;"
         offset="0.26250932"
         id="stop43" /><stop
         style="stop-color:#ffffff;stop-opacity:1;"
         offset="0.39279237"
         id="stop45" /><stop
         style="stop-color:#ebebeb;stop-opacity:1;"
         offset="0.53452021"
         id="stop46" /><stop
         style="stop-color:#7a7a7a;stop-opacity:1;"
         offset="0.69069594"
         id="stop47" /><stop
         style="stop-color:#000000;stop-opacity:1;"
         offset="0.75793654"
         id="stop44" /></linearGradient><linearGradient
       id="linearGradient36"><stop
         style="stop-color:#727272;stop-opacity:1;"
         offset="0"
         id="stop40" /><stop
         style="stop-color:#ffffff;stop-opacity:1;"
         offset="0.5"
         id="stop41" /><stop
         style="stop-color:#252525;stop-opacity:1;"
         offset="1"
         id="stop42" /></linearGradient><linearGradient
       xlink:href="#linearGradient42"
       id="linearGradient44"
       x1="103.95976"
       y1="3.2746179"
       x2="103.38153"
       y2="69.533257"
       gradientUnits="userSpaceOnUse"
       spreadMethod="pad"
       gradientTransform="translate(300.03449,-3.1750001)" /><linearGradient
       xlink:href="#linearGradient50"
       id="linearGradient51"
       x1="104.41043"
       y1="-1.0082471"
       x2="104.41043"
       y2="83.243904"
       gradientUnits="userSpaceOnUse"
       gradientTransform="matrix(1.0091292,0,0,0.99990075,298.6916,-3.1709191)" /><linearGradient
       xlink:href="#linearGradient20"
       id="linearGradient21"
       x1="104.48696"
       y1="37.159943"
       x2="104.48696"
       y2="137.02751"
       gradientUnits="userSpaceOnUse"
       spreadMethod="reflect"
       gradientTransform="translate(300.03449)" /><filter
       style="color-interpolation-filters:sRGB"
       id="filter74"
       x="-0.1719594"
       y="-0.28813526"
       width="1.3470856"
       height="1.5815684"><feFlood
         result="flood"
         in="SourceGraphic"
         flood-opacity="0.819608"
         flood-color="rgb(114,67,7)"
         id="feFlood73" /><feGaussianBlur
         result="blur"
         in="SourceGraphic"
         stdDeviation="0.200000"
         id="feGaussianBlur73" /><feOffset
         result="offset"
         in="blur"
         dx="0.100000"
         dy="0.100000"
         id="feOffset73" /><feComposite
         result="comp1"
         operator="in"
         in="flood"
         in2="offset"
         id="feComposite73" /><feComposite
         result="comp2"
         operator="over"
         in="SourceGraphic"
         in2="comp1"
         id="feComposite74" /></filter></defs><g
     id="layer9"
     transform="translate(-300.03449)"><g
       id="layer3"
       style="fill:#ebebeb;fill-opacity:1"><rect
         style="fill:#d9d9d9;fill-opacity:1;stroke:none;stroke-width:0;stroke-linecap:round;stroke-linejoin:round;stroke-dasharray:none;paint-order:stroke fill markers"
         id="rect1"
         width="210"
         height="210"
         x="300.03448"
         y="2.105575e-13"
         ry="0" /></g><g
       id="layer1"
       style="display:inline"><path
         style="display:inline;fill:#7d7d7d;fill-opacity:1;stroke:#0d0d0d;stroke-width:1.6;stroke-linecap:round;stroke-linejoin:round;stroke-dasharray:none;stroke-opacity:1;paint-order:stroke fill markers"
         d="m 437.83943,49.603665 c -3.41087,0 -60.51105,0.07457 -65.35278,0.262692 -4.84175,0.188118 -10.80237,4.050688 -11.18209,8.935497 -0.42157,5.423076 -8.84403,102.248676 -9.33079,107.696526 -0.62514,6.99636 -0.67076,19.55523 5.79946,19.7885 5.93012,0.2138 90.3071,0.0998 95.19799,0.0998 4.89088,0 3.65508,-12.38432 3.4576,-17.46436 -0.19108,-4.9136 -8.79526,-109.654005 -9.91683,-113.069229 -1.1364,-3.460364 -5.26167,-6.249372 -8.67256,-6.249372 z"
         id="path1-6-3" /><path
         style="display:inline;fill:url(#linearGradient21);fill-opacity:1;stroke:#000000;stroke-width:0.5;stroke-linecap:round;stroke-linejoin:round;stroke-dasharray:none;stroke-opacity:1;paint-order:stroke fill markers"
         d="m 448.42944,78.816959 c 2.63671,-11.058025 5.7758,-10.219723 5.7758,-33.407266 0,-10.650541 -6.40879,-26.607676 -16.51154,-26.607676 -8.95578,0 -52.27308,-0.0998 -62.79949,-0.0998 -13.26574,0 -20.05654,11.123273 -20.05654,29.810435 0,15.771352 3.52603,17.147148 5.33535,29.088212 16.89662,0 69.99637,1.216095 88.25642,1.216095 z"
         id="path1-6-3-9" /><path
         style="display:inline;fill:#262626;fill-opacity:1;stroke:#cfcfcf;stroke-width:1.6;stroke-linecap:round;stroke-linejoin:round;stroke-dasharray:none;stroke-opacity:1;paint-order:stroke fill markers"
         d="m 437.83943,49.603654 c -3.41087,0 -60.51104,0.06591 -65.35278,0.232198 -4.84174,0.16628 -10.80237,3.580468 -11.18208,7.898229 -0.42158,4.793549 -8.77088,102.748579 -9.25764,107.564029 -0.62514,6.18419 2.71557,8.15362 7.76128,8.17993 5.93388,0.031 83.18465,0.0882 88.07554,0.0882 4.89088,0 8.74255,-0.15359 8.54507,-4.64392 -0.19108,-4.34321 -8.79526,-110.775944 -9.91683,-113.794716 -1.1364,-3.058671 -5.26167,-5.52392 -8.67256,-5.52392 z"
         id="path1-6" /><path
         style="display:inline;fill:#414141;fill-opacity:1;stroke:none;stroke-width:0;stroke-linecap:round;stroke-linejoin:round;stroke-dasharray:none;paint-order:stroke fill markers"
         d="m 433.31169,57.947103 c -2.95173,0 -52.36552,0.05704 -56.55549,0.200941 -4.18999,0.143897 -9.34823,3.098493 -9.67684,6.83503 -0.36482,4.148278 -7.5902,88.917346 -8.01144,93.084576 -0.54099,5.35172 2.35001,7.05604 6.71651,7.07881 5.13511,0.0268 71.98698,0.0763 76.21948,0.0763 4.23251,0 7.56569,-0.13291 7.39479,-4.01879 -0.16535,-3.75856 -7.6113,-95.864127 -8.58189,-98.476535 -0.98344,-2.646936 -4.55341,-4.780332 -7.50512,-4.780332 z"
         id="path1" /><path
         style="display:inline;fill:none;fill-opacity:1;stroke:#080808;stroke-width:2.9;stroke-linecap:round;stroke-linejoin:round;stroke-dasharray:none;stroke-opacity:1"
         d="m 372.78115,50.755915 h 63.37572"
         id="path4" /><path
         style="display:inline;fill:url(#linearGradient51);fill-opacity:1;stroke:#000000;stroke-width:0.502253;stroke-linecap:round;stroke-linejoin:round;stroke-dasharray:none;stroke-opacity:1;paint-order:stroke fill markers"
         d="m 446.94271,55.125898 -10.20347,-0.04533 -0.80522,-5.103413 -63.75635,-0.152736 -0.4238,5.237259 -10.14973,0.05649 c 0,0 2.18757,-22.37183 2.47232,-25.880227 0.24305,-2.994669 3.18999,-8.273746 9.09611,-8.292116 l 59.79391,-0.185981 c 5.05191,-0.01572 9.61542,3.763256 10.36416,7.746462 0.77015,4.096985 3.61207,26.619598 3.61207,26.619597 z"
         id="path3" /><path
         style="display:inline;fill:url(#linearGradient44);stroke:#000000;stroke-width:0.5;stroke-linecap:round;stroke-linejoin:round;stroke-dasharray:none;stroke-opacity:1;paint-order:stroke fill markers"
         d="m 374.17401,50.620847 c 0,0 -4.39141,-10.27229 -4.11049,-17.605573 0.28779,-7.512519 4.5077,-16.801868 10.57655,-17.747477 l 57.29342,3.314438 c -4.55461,0.243118 -6.9272,7.973031 -7.02571,16.734426 -0.0943,8.387842 3.83023,15.280729 3.83023,15.280729 z"
         id="path14" /></g><g
       id="layer8"
       style="display:inline"><g
         id="g19"
         transform="translate(300.03449)"><path
           id="path47-8"
           style="fill:#efefef;fill-opacity:1;stroke:#000000;stroke-width:0.0285667;stroke-linecap:round;stroke-linejoin:round;paint-order:stroke fill markers"
           d="m 88.075574,120.10763 c 0.280433,3.57599 -3.121875,6.7003 -8.768054,6.7003 -5.68729,0 -8.925346,-3.20104 -8.72695,-6.7825 0.20553,-3.71028 3.861784,-6.20703 8.72695,-6.20703 4.865164,0 8.48031,2.62007 8.768054,6.28923 z" /><path
           id="path47-8-5"
           style="fill:#efefef;fill-opacity:1;stroke:#000000;stroke-width:0.0285667;stroke-linecap:round;stroke-linejoin:round;paint-order:stroke fill markers"
           d="m 113.21567,119.91652 c 0.28043,3.57599 -3.12187,6.7003 -8.76805,6.7003 -5.687294,0 -8.925351,-3.20104 -8.726955,-6.78251 0.205531,-3.71027 3.861785,-6.20702 8.726955,-6.20702 4.86516,0 8.48031,2.62007 8.76805,6.28923 z" /><path
           id="path47-8-8"
           style="fill:#efefef;fill-opacity:1;stroke:#000000;stroke-width:0.0285667;stroke-linecap:round;stroke-linejoin:round;paint-order:stroke fill markers"
           d="m 137.70357,120.1277 c 0.28044,3.57598 -3.12187,6.70029 -8.76805,6.70029 -5.68729,0 -8.92535,-3.20104 -8.72695,-6.7825 0.20553,-3.71027 3.86178,-6.20702 8.72695,-6.20702 4.86516,0 8.48031,2.62006 8.76805,6.28923 z" /><path
           id="path47-8-4"
           style="fill:#efefef;fill-opacity:1;stroke:#000000;stroke-width:0.0299148;stroke-linecap:round;stroke-linejoin:round;paint-order:stroke fill markers"
           d="m 87.103493,136.83246 c 0.293666,3.74474 -3.269201,7.0165 -9.181842,7.0165 -5.955689,0 -9.346567,-3.35211 -9.138803,-7.10259 0.215231,-3.88538 4.044031,-6.49995 9.138803,-6.49995 5.094762,0 8.880524,2.74371 9.181842,6.58604 z" /><path
           id="path47-8-86"
           style="fill:#efefef;fill-opacity:1;stroke:#000000;stroke-width:0.0299148;stroke-linecap:round;stroke-linejoin:round;paint-order:stroke fill markers"
           d="m 113.63598,136.84742 c 0.29367,3.74475 -3.2692,7.0165 -9.18185,7.0165 -5.955679,0 -9.346551,-3.3521 -9.138792,-7.10259 0.21523,-3.88537 4.044035,-6.49995 9.138792,-6.49995 5.09478,0 8.88053,2.74371 9.18185,6.58604 z" /><path
           id="path47-8-7"
           style="fill:#efefef;fill-opacity:1;stroke:#000000;stroke-width:0.0299148;stroke-linecap:round;stroke-linejoin:round;paint-order:stroke fill markers"
           d="m 139.47015,136.98331 c 0.29367,3.74475 -3.26921,7.01651 -9.18184,7.01651 -5.9557,0 -9.34657,-3.35211 -9.13881,-7.10259 0.21524,-3.88538 4.04404,-6.49996 9.13881,-6.49996 5.09476,0 8.88051,2.74372 9.18184,6.58604 z" /><path
           id="path47-8-4-6"
           style="fill:#d23e03;fill-opacity:1;stroke:#000000;stroke-width:0.0307638;stroke-linecap:round;stroke-linejoin:round;paint-order:stroke fill markers"
           d="m 86.454765,154.76429 c 0.302,3.85102 -3.36198,7.21563 -9.442416,7.21563 -6.12471,0 -9.61182,-3.44724 -9.39816,-7.30416 0.22134,-3.99564 4.1588,-6.68442 9.39816,-6.68442 5.239346,0 9.132546,2.82158 9.442416,6.77295 z" /><path
           id="path47-8-86-2"
           style="fill:#efefef;fill-opacity:1;stroke:#000000;stroke-width:0.0307638;stroke-linecap:round;stroke-linejoin:round;paint-order:stroke fill markers"
           d="m 113.51777,154.77968 c 0.30201,3.85102 -3.36198,7.21563 -9.44242,7.21563 -6.12471,0 -9.61182,-3.44724 -9.39816,-7.30416 0.22134,-3.99564 4.1588,-6.68442 9.39816,-6.68442 5.23936,0 9.13255,2.82158 9.44242,6.77295 z" /><path
           id="path47-8-7-9"
           style="display:inline;fill:#55d400;fill-opacity:1;stroke:#000000;stroke-width:0.0307638;stroke-linecap:round;stroke-linejoin:round;paint-order:stroke fill markers"
           d="m 140.51448,154.74256 c 0.302,3.85102 -3.36199,7.21563 -9.44242,7.21563 -6.12472,0 -9.61182,-3.44724 -9.39816,-7.30416 0.22134,-3.99564 4.1588,-6.68442 9.39816,-6.68442 5.23935,0 9.13254,2.82158 9.44242,6.77295 z" /></g><path
         id="path47"
         style="display:inline;fill:#d95300;fill-opacity:1;stroke:#000000;stroke-width:0.1;stroke-linecap:round;stroke-linejoin:round;paint-order:stroke fill markers"
         d="m 435.18193,85.141823 c 0.98168,12.518002 -10.92838,23.454917 -30.69331,23.454917 -19.90883,0 -31.24392,-11.205495 -30.54942,-23.742707 0.71948,-12.988136 13.5185,-21.728197 30.54942,-21.728197 17.03092,-10e-7 29.68604,9.171746 30.69331,22.015987 z" /><path
         style="display:inline;fill:none;fill-opacity:1;stroke:#ffffff;stroke-width:9.9;stroke-linecap:round;stroke-linejoin:round;stroke-dasharray:none;stroke-opacity:1;paint-order:normal;filter:url(#filter74)"
         d="m 388.89864,87.553521 11.76078,9.326017 19.81644,-18.845315"
         id="path48" /></g></g></svg>
